# Created by 3DAce v2.72


g
v 0.476952 -0.000000 0.871031
v 0.413053 -0.238476 0.871031
v 0.238476 -0.413053 0.871031
v -0.000001 -0.476952 0.871031
v -0.238476 -0.413053 0.871031
v -0.413052 -0.238476 0.871031
v -0.476952 0.000000 0.871031
v -0.413052 0.238476 0.871031
v -0.238476 0.413053 0.871031
v -0.000001 0.476952 0.871031
v 0.238476 0.413053 0.871031
v 0.413053 0.238476 0.871031
v 0.554202 0.000000 -0.318532
v 0.566602 -0.327128 -1.423530
v 0.277101 -0.479953 -0.318532
v -0.000001 -0.654255 -1.423530
v -0.277101 -0.479953 -0.318532
v -0.566602 -0.327128 -1.423530
v -0.554202 0.000000 -0.318532
v -0.566602 0.327128 -1.423530
v -0.277101 0.479953 -0.318532
v -0.000001 0.654255 -1.423530
v 0.277101 0.479953 -0.318532
v 0.566602 0.327128 -1.423530
# 24 vertices

vt 0.750000 1.000000
vt 0.676208 1.000000
vt 0.750000 0.481573
vt 0.750000 1.000000
vt 0.676208 1.000000
vt 0.676208 0.000000
vt 0.750000 0.481573
vt 0.676208 1.000000
vt 0.676208 1.000000
vt 0.593584 1.000000
vt 0.593583 0.481573
vt 0.676208 1.000000
vt 0.676208 1.000000
vt 0.593583 0.481573
vt 0.676208 0.000000
vt 0.676208 1.000000
vt 0.593584 1.000000
vt 0.500000 1.000000
vt 0.593583 0.481573
vt 0.593584 1.000000
vt 0.500000 1.000000
vt 0.500000 0.000000
vt 0.593583 0.481573
vt 0.500000 1.000000
vt 0.500000 1.000000
vt 0.406416 1.000000
vt 0.406416 0.481573
vt 0.500000 1.000000
vt 0.500000 1.000000
vt 0.406416 0.481573
vt 0.500000 0.000000
vt 0.500000 1.000000
vt 0.406416 1.000000
vt 0.323792 1.000000
vt 0.406416 0.481573
vt 0.406416 1.000000
vt 0.323792 1.000000
vt 0.323792 0.000000
vt 0.406416 0.481573
vt 0.323792 1.000000
vt 0.323792 1.000000
vt 0.250000 1.000000
vt 0.250000 0.481573
vt 0.323792 1.000000
vt 0.323792 1.000000
vt 0.250000 0.481573
vt 0.323792 0.000000
vt 0.323792 1.000000
vt 0.250000 1.000000
vt 0.176208 1.000000
vt 0.250000 0.481573
vt 0.250000 1.000000
vt 0.176208 1.000000
vt 0.176208 0.000000
vt 0.250000 0.481573
vt 0.176208 1.000000
vt 0.176208 1.000000
vt 0.093584 1.000000
vt 0.093584 0.481573
vt 0.176208 1.000000
vt 0.176208 1.000000
vt 0.093584 0.481573
vt 0.176208 0.000000
vt 0.176208 1.000000
vt 0.093584 1.000000
vt 0.000000 1.000000
vt 0.093584 0.481573
vt 0.093584 1.000000
vt 0.000000 1.000000
vt 0.000000 0.000000
vt 0.093584 0.481573
vt 0.000000 1.000000
vt 0.000000 1.000000
vt -0.093584 1.000000
vt -0.093583 0.481573
vt 0.000000 1.000000
vt 0.000000 1.000000
vt -0.093583 0.481573
vt 0.000000 0.000000
vt 0.000000 1.000000
vt -0.093584 1.000000
vt -0.176208 1.000000
vt -0.093583 0.481573
vt -0.093584 1.000000
vt -0.176208 1.000000
vt -0.176208 0.000000
vt -0.093583 0.481573
vt -0.176208 1.000000
vt -0.176208 1.000000
vt -0.250000 1.000000
vt -0.250000 0.481573
vt -0.176208 1.000000
vt -0.176208 1.000000
vt -0.250000 0.481573
vt -0.176208 0.000000
vt -0.176208 1.000000
# 96 texture vertices

vn 0.997898 -0.000000 0.064803
vn 0.863847 -0.498743 0.070880
vn 0.997549 -0.000000 0.069966
vn 0.997898 -0.000000 0.064803
vn 0.863847 -0.498743 0.070880
vn 0.863451 -0.498514 0.077041
vn 0.997549 -0.000000 0.069966
vn 0.863847 -0.498743 0.070880
vn 0.863847 -0.498743 0.070880
vn 0.498949 -0.864205 0.064803
vn 0.498774 -0.863903 0.069966
vn 0.863847 -0.498743 0.070880
vn 0.863847 -0.498743 0.070880
vn 0.498774 -0.863903 0.069966
vn 0.863451 -0.498514 0.077041
vn 0.863847 -0.498743 0.070880
vn 0.498949 -0.864205 0.064803
vn -0.000001 -0.997485 0.070880
vn 0.498774 -0.863903 0.069966
vn 0.498949 -0.864205 0.064803
vn -0.000001 -0.997485 0.070880
vn -0.000001 -0.997028 0.077041
vn 0.498774 -0.863903 0.069966
vn -0.000001 -0.997485 0.070880
vn -0.000001 -0.997485 0.070880
vn -0.498950 -0.864205 0.064803
vn -0.498775 -0.863903 0.069966
vn -0.000001 -0.997485 0.070880
vn -0.000001 -0.997485 0.070880
vn -0.498775 -0.863903 0.069966
vn -0.000001 -0.997028 0.077041
vn -0.000001 -0.997485 0.070880
vn -0.498950 -0.864205 0.064803
vn -0.863847 -0.498742 0.070880
vn -0.498775 -0.863903 0.069966
vn -0.498950 -0.864205 0.064803
vn -0.863847 -0.498742 0.070880
vn -0.863452 -0.498514 0.077041
vn -0.498775 -0.863903 0.069966
vn -0.863847 -0.498742 0.070880
vn -0.863847 -0.498742 0.070880
vn -0.997898 0.000000 0.064803
vn -0.997549 0.000000 0.069966
vn -0.863847 -0.498742 0.070880
vn -0.863847 -0.498742 0.070880
vn -0.997549 0.000000 0.069966
vn -0.863452 -0.498514 0.077041
vn -0.863847 -0.498742 0.070880
vn -0.997898 0.000000 0.064803
vn -0.863847 0.498742 0.070880
vn -0.997549 0.000000 0.069966
vn -0.997898 0.000000 0.064803
vn -0.863847 0.498742 0.070880
vn -0.863452 0.498514 0.077041
vn -0.997549 0.000000 0.069966
vn -0.863847 0.498742 0.070880
vn -0.863847 0.498742 0.070880
vn -0.498949 0.864205 0.064803
vn -0.498775 0.863903 0.069966
vn -0.863847 0.498742 0.070880
vn -0.863847 0.498742 0.070880
vn -0.498775 0.863903 0.069966
vn -0.863452 0.498514 0.077041
vn -0.863847 0.498742 0.070880
vn -0.498949 0.864205 0.064803
vn -0.000001 0.997485 0.070880
vn -0.498775 0.863903 0.069966
vn -0.498949 0.864205 0.064803
vn -0.000001 0.997485 0.070880
vn -0.000001 0.997028 0.077041
vn -0.498775 0.863903 0.069966
vn -0.000001 0.997485 0.070880
vn -0.000001 0.997485 0.070880
vn 0.498949 0.864205 0.064803
vn 0.498774 0.863903 0.069966
vn -0.000001 0.997485 0.070880
vn -0.000001 0.997485 0.070880
vn 0.498774 0.863903 0.069966
vn -0.000001 0.997028 0.077041
vn -0.000001 0.997485 0.070880
vn 0.498949 0.864205 0.064803
vn 0.863847 0.498743 0.070880
vn 0.498774 0.863903 0.069966
vn 0.498949 0.864205 0.064803
vn 0.863847 0.498743 0.070880
vn 0.863451 0.498514 0.077041
vn 0.498774 0.863903 0.069966
vn 0.863847 0.498743 0.070880
vn 0.863847 0.498743 0.070880
vn 0.997898 -0.000000 0.064803
vn 0.997549 -0.000000 0.069966
vn 0.863847 0.498743 0.070880
vn 0.863847 0.498743 0.070880
vn 0.997549 -0.000000 0.069966
vn 0.863451 0.498514 0.077041
vn 0.863847 0.498743 0.070880
# 96 vertex normals

g mat_00
f 1/1/1 2/2/2 13/3/3
f 2/5/5 14/6/6 13/7/7
f 2/9/9 3/10/10 15/11/11
f 2/13/13 15/14/14 14/15/15
f 3/17/17 4/18/18 15/19/19
f 4/21/21 16/22/22 15/23/23
f 4/25/25 5/26/26 17/27/27
f 4/29/29 17/30/30 16/31/31
f 5/33/33 6/34/34 17/35/35
f 6/37/37 18/38/38 17/39/39
f 6/41/41 7/42/42 19/43/43
f 6/45/45 19/46/46 18/47/47
f 7/49/49 8/50/50 19/51/51
f 8/53/53 20/54/54 19/55/55
f 8/57/57 9/58/58 21/59/59
f 8/61/61 21/62/62 20/63/63
f 9/65/65 10/66/66 21/67/67
f 10/69/69 22/70/70 21/71/71
f 10/73/73 11/74/74 23/75/75
f 10/77/77 23/78/78 22/79/79
f 11/81/81 12/82/82 23/83/83
f 12/85/85 24/86/86 23/87/87
f 12/89/89 1/90/90 13/91/91
f 12/93/93 13/94/94 24/95/95
# 24 elements

